<svg width="17" height="17" viewBox="0 0 17 17" fill="none" xmlns="http://www.w3.org/2000/svg">
<path fill-rule="evenodd" clip-rule="evenodd" d="M8.46918 14.9C12.0038 14.9 14.8692 12.0346 14.8692 8.5C14.8692 4.96538 12.0038 2.1 8.46918 2.1C4.93456 2.1 2.06918 4.96538 2.06918 8.5C2.06918 12.0346 4.93456 14.9 8.46918 14.9ZM8.46918 16.5C12.8875 16.5 16.4692 12.9183 16.4692 8.5C16.4692 4.08172 12.8875 0.5 8.46918 0.5C4.0509 0.5 0.469177 4.08172 0.469177 8.5C0.469177 12.9183 4.0509 16.5 8.46918 16.5Z" fill="#6c757d"/>
<path d="M7.42916 6.54001L5.70916 5.72001L6.48916 7.46001L3.22916 8.48001L6.48916 9.52001L5.66916 11.24L7.38916 10.46L8.48916 13.74L9.50916 10.46L11.2292 11.24L10.4292 9.52001L13.7092 8.48001L10.4292 7.46001L11.2092 5.72001L9.50916 6.54001L8.48916 3.26001L7.42916 6.54001Z" fill="#6c757d"/>
</svg>
